<svg xmlns="http://www.w3.org/2000/svg" xmlns:xlink="http://www.w3.org/1999/xlink" viewBox="0 0 1128 552">
  <defs>
    <svg id="menu_collapse" focusable="false" class="" data-icon="menu-fold" width="1em" height="1em" fill="currentColor" aria-hidden="true" viewBox="64 64 896 896">
      <path d="M408 442h480c4.4 0 8-3.6 8-8v-56c0-4.4-3.6-8-8-8H408c-4.4 0-8 3.6-8 8v56c0 4.4 3.6 8 8 8zm-8 204c0 4.4 3.6 8 8 8h480c4.4 0 8-3.6 8-8v-56c0-4.4-3.6-8-8-8H408c-4.4 0-8 3.6-8 8v56zm504-486H120c-4.4 0-8 3.6-8 8v56c0 4.4 3.6 8 8 8h784c4.4 0 8-3.6 8-8v-56c0-4.4-3.6-8-8-8zm0 632H120c-4.4 0-8 3.6-8 8v56c0 4.4 3.6 8 8 8h784c4.4 0 8-3.6 8-8v-56c0-4.4-3.6-8-8-8zM115.4 518.9L271.7 642c5.8 4.6 14.4.5 14.4-6.9V388.9c0-7.4-8.5-11.5-14.4-6.9L115.4 505.1a8.74 8.74 0 000 13.8z"></path>
    </svg>
    <svg id="menu_expand" focusable="false" class="" data-icon="menu-unfold" width="1em" height="1em" fill="currentColor" aria-hidden="true" viewBox="64 64 896 896"><path d="M408 442h480c4.4 0 8-3.6 8-8v-56c0-4.4-3.6-8-8-8H408c-4.4 0-8 3.6-8 8v56c0 4.4 3.6 8 8 8zm-8 204c0 4.4 3.6 8 8 8h480c4.4 0 8-3.6 8-8v-56c0-4.4-3.6-8-8-8H408c-4.4 0-8 3.6-8 8v56zm504-486H120c-4.4 0-8 3.6-8 8v56c0 4.4 3.6 8 8 8h784c4.4 0 8-3.6 8-8v-56c0-4.4-3.6-8-8-8zm0 632H120c-4.4 0-8 3.6-8 8v56c0 4.4 3.6 8 8 8h784c4.4 0 8-3.6 8-8v-56c0-4.4-3.6-8-8-8zM142.4 642.1L298.7 519a8.84 8.84 0 000-13.9L142.4 381.9c-5.8-4.6-14.4-.5-14.4 6.9v246.3a8.9 8.9 0 0014.4 7z"></path></svg>
    <svg id="wechat" t="1646198966565" class="icon" viewBox="0 0 1024 1024" version="1.1" xmlns="http://www.w3.org/2000/svg" p-id="3519" width="1em" height="1em"><path d="M860.605629 794.818297c62.708204-46.846958 98.367355-114.1232 98.367355-186.606025 0-124.932384-107.687628-228.428549-246.699682-244.213048C694.076872 220.944088 555.24799 113.231901 388.674207 113.231901c-179.531909 0-325.59352 126.529765-325.59352 282.053887 0 83.857896 41.801035 161.656797 115.204835 215.374232-4.007267 17.577331-18.09717 54.55757-33.920554 88.097454-5.649674 11.969613-2.604314 26.240641 7.435343 34.864042 5.481851 4.711302 12.313443 7.104815 19.174712 7.104815 5.701862 0 11.423167-1.656733 16.407692-5.008061 43.098587-28.994358 97.121991-61.827137 114.845655-68.413136 28.04166 6.659677 57.092299 10.037611 86.445838 10.037611 4.737908 0 9.487072-0.106424 14.228049-0.283456 34.393321 102.412484 143.480832 177.460738 272.38876 177.460738 25.082258 0 49.906643-2.834558 73.892941-8.425903 15.937994 6.405897 60.865229 33.805944 96.594989 57.83522 4.983501 3.351328 10.709923 5.008061 16.411785 5.008061 6.860245 0 13.69286-2.393513 19.174712-7.104815 10.039657-8.627495 13.0799-22.899546 7.430226-34.868135C876.128161 840.123133 864.618013 810.354132 860.605629 794.818297zM388.674207 618.510826c-26.480094 0-52.621475-3.240811-77.698616-9.637498-8.704243-2.219551-20.735253-5.278213-78.948073 28.728298 8.795317-29.173436 10.527774-54.349839-9.790994-67.964928-63.757093-42.723034-100.32494-106.271372-100.32494-174.348863 0-123.085316 119.667473-223.224014 266.762623-223.224014 133.450385 0 244.903779 81.280188 263.931135 190.632735-145.854902 10.06831-260.996293 116.333542-260.996293 245.51674 0 3.439332 0.103354 6.858198 0.265036 10.263761C390.806777 618.486266 389.739469 618.510826 388.674207 618.510826zM815.865659 754.429425c-17.149589 11.485589-18.159592 30.708396-12.754488 53.204759-31.210839-17.527189-45.367257-21.324678-53.827953-21.324678-3.471055 0-5.984295 0.636496-8.320503 1.235131-21.185508 5.405103-43.284829 8.143471-65.671699 8.143471-123.985826 0-224.852094-84.099397-224.852094-187.476859 0-103.374392 100.866269-187.474812 224.852094-187.474812s224.852094 84.099397 224.852094 187.474812C900.142088 665.24522 869.420389 718.541053 815.865659 754.429425z" p-id="3520"></path><path d="M246.388597 322.556347a39.957 36.191 0 1 0 81.776492 0 39.957 36.191 0 1 0-81.776492 0Z" p-id="3521"></path><path d="M458.879152 322.556347a39.957 36.191 0 1 0 81.776492 0 39.957 36.191 0 1 0-81.776492 0Z" p-id="3522"></path><path d="M566.159504 530.367323a32.066 29.044 0 1 0 65.626673 0 32.066 29.044 0 1 0-65.626673 0Z" p-id="3523"></path><path d="M729.48429 530.367323a32.066 29.044 0 1 0 65.626673 0 32.066 29.044 0 1 0-65.626673 0Z" p-id="3524"></path></svg>
    <svg id="qq" t="1646199157908" class="icon" viewBox="0 0 1024 1024" version="1.1" xmlns="http://www.w3.org/2000/svg" p-id="7729" width="1em" height="1em"><path d="M701.4 1012c-33.5 0-83.8-6.9-131-37.3l-4.6-3-6.9 1.5c-15.2 3-31.2 4.6-45.7 4.6-16 0-30.5-1.5-44.9-4.6l-9.9-2.3-4.6 3c-48.7 30.5-102.1 37.3-137.1 37.3-22.8 0-39.6-2.3-45.7-3.8h-1.5c-36.6-8.4-63.2-19-83-32-28.2-18.3-35.8-40.4-36.6-54.8-3-31.2 17.5-62.5 60.9-92.9 6.1-4.6 12.2-8.4 18.3-11.4l1.5-0.8-0.6-1.5c-8.4-12.9-16.8-28.9-25.1-46.5l-0.8-2.3-1.5 1.5c-19 20.6-38.1 31.2-57.1 31.2-3 0-5.3 0-8.4-0.8-45.7-6.9-59.4-64.7-61.7-76.9-20.6-96.7 43.4-192.7 72.4-230l0.8-0.8v-0.8c-22.8-53.3 12.2-105.9 23.6-121.1v-1.6c1.5-109.7 34.3-196.5 96.7-258.9C348 28.8 449.3 14.3 489.7 12H534.8c31.2 1.5 139.4 13.7 220.9 95.2 62.5 62.5 95.2 149.3 96.7 258.9v1.6c11.4 14.5 46.5 67 23.6 121.1v0.8l0.8 0.8c28.2 36.6 92.2 133.3 72.4 230-3 16-18.3 70.1-61.7 76.9-3 0.8-5.3 0.8-8.4 0.8-19 0-38.8-10.7-57.1-31.2l-1.5-1.5-0.8 2.3c-7.6 16.8-16 32.7-25.1 46.5l-0.8 1.5 1.5 0.8c6.9 3.8 12.9 7.6 18.3 11.4 43.4 30.5 64 61.7 60.9 92.9-1.5 14.5-9.1 36.6-36.6 54.8-19.8 12.9-46.5 23.6-82.3 32-3.2-0.9-23.7 4.4-54.2 4.4z m-96.7-90.6c34.3 22.1 71.6 27.4 96.7 27.4 21.3 0 35-3 35-3 54.1-12.9 67.8-26.7 70.8-30.5l0.8-0.8v-0.8c-1.5-4.6-8.4-16-36.6-35-8.4-6.1-22.8-14.5-41.9-23.6l-3-1.5c-20.6-9.1-24.4-35.8-7.6-51l1.5-1.5c27.4-23.6 51.8-92.2 58.6-113.5l0.8-3c7.6-25.9 42.7-29.7 56.4-6.1l1.5 3c17.5 32 29.7 44.9 35.8 50.3l1.5 1.5 0.8-1.5c3-5.3 6.9-15.2 8.4-22.1 19.8-92.2-71.6-192.7-73.1-193.5l-0.8-0.8c-9.9-11.4-10.7-28.2-1.5-39.6l0.8-0.8c6.1-7.6 12.9-19.8 3.8-42.7-5.3-13.7-14.5-25.1-18.3-28.9-5.3-6.1-8.4-13.7-8.4-22.1 0.8-97.5-25.9-173.6-77.7-225.4C645 92 557.4 81.3 530.8 79h-38.1c-25.9 1.5-115 11.4-180.5 76.9-51.8 51.8-77.7 128-77.7 225.4v0.8c0 7.6-3 16-8.4 21.3-3.8 4.6-12.9 15.2-18.3 29.7-9.1 22.8-3 34.3 3.8 42.7l0.8 0.8c9.1 11.4 9.1 28.9-1.5 39.6l-0.8 0.8c-0.8 0.8-92.2 101.3-72.4 192.7 1.5 7.6 5.3 16.8 8.4 22.8l0.8 1.5 1.5-1.5c6.9-6.1 19-19.8 35.8-50.3l1.5-3c12.9-23.6 48.7-19.8 56.4 6.1l0.8 3c9.9 32.7 34.3 92.2 58.6 113.5l1.5 1.5c16.8 14.5 12.9 41.9-7.6 51-1.5 0.8-2.3 0.8-2.3 0.8-0.8 0-22.8 10.7-42.7 24.4-28.2 19-34.3 30.5-36.6 35v0.8l0.8 0.8c3 3.8 16 16.8 67.8 29.7 0.8 0 1.5 0.8 3 0.8 6.1 0.8 16.8 2.3 31.2 2.3 27.4 0 67.8-4.6 103.6-27.4l19-10.7c6.1-3.8 13.7-4.6 20.6-3l20.6 3.8c6.9 1.5 18.3 3 32.7 3 10.7 0 22.1-0.8 34.3-3l30.5-5.3h1.5l25.3 15.1z" p-id="7730"></path></svg>
  </defs>
</svg>
