<?xml version="1.0" encoding="UTF-8" standalone="no"?>
<!DOCTYPE svg PUBLIC "-//W3C//DTD SVG 1.1//EN" "http://www.w3.org/Graphics/SVG/1.1/DTD/svg11.dtd">
<svg width="100%" height="100%" viewBox="0 0 385 103" version="1.1" xmlns="http://www.w3.org/2000/svg" xmlns:xlink="http://www.w3.org/1999/xlink" xml:space="preserve" xmlns:serif="http://www.serif.com/" style="fill-rule:evenodd;clip-rule:evenodd;stroke-linejoin:round;stroke-miterlimit:1.41421;">
    <g id="图层_x0020_1">
        <path d="M40.41,67.959C21.291,67.963 9.79,60.288 3.997,55.967C3.511,55.605 2.882,55.586 2.374,55.918C1.867,56.25 1.632,56.835 1.769,57.425C2.098,58.836 2.472,60.232 2.891,61.609C3.472,63.517 4.821,64.899 6.714,65.526C18.081,69.291 29.371,71.013 40.41,67.959Z" style="fill:rgb(255,0,0);"/>
        <path d="M39.413,51.648C19.581,44.174 13.533,33.409 6.746,17.342C6.511,16.786 5.982,16.452 5.38,16.477C4.777,16.503 4.279,16.882 4.092,17.455C3.29,19.924 2.502,22.613 1.91,25.048C1.464,26.889 1.851,28.661 3.027,30.146C10.95,40.159 29.35,53.369 39.413,51.648Z" style="fill:rgb(255,0,0);"/>
        <path d="M36.757,58.374C22.29,58.046 14.024,48.166 2.67,35.47C2.282,35.037 1.707,34.886 1.157,35.073C0.606,35.26 0.242,35.731 0.2,36.311C0.055,38.289 -0.011,40.261 0.002,42.222C0.014,44.099 0.806,45.71 2.284,46.868C14.001,56.045 29.544,62.535 36.757,58.374Z" style="fill:rgb(255,0,0);"/>
        <path d="M43.267,73.335C38.229,75.361 28.304,79.006 10.048,72.157C9.477,71.943 8.863,72.102 8.468,72.567C8.074,73.031 8.017,73.663 8.321,74.191C8.892,75.181 9.492,76.154 10.122,77.108C11.179,78.711 12.773,79.64 14.689,79.77C22.543,80.301 38.494,79.515 43.267,73.335Z" style="fill:rgb(255,0,0);"/>
        <path d="M25.437,90.127C34.076,88.496 40.993,86.181 46.893,80.023C46.776,79.91 39.266,86.016 19.879,84.907C19.27,84.872 18.73,85.207 18.492,85.769C18.254,86.331 18.389,86.952 18.838,87.365C19.374,87.858 19.922,88.342 20.481,88.816C21.898,90.019 23.611,90.472 25.437,90.127Z" style="fill:rgb(255,0,0);"/>
        <path d="M38.171,96.696C43.923,93.723 48.462,90.238 52.128,84.748C46.319,89.822 40.175,92.162 32.46,93.758C31.856,93.883 31.419,94.356 31.341,94.968C31.264,95.579 31.569,96.147 32.123,96.418C32.378,96.543 32.634,96.667 32.892,96.789C34.626,97.609 36.467,97.577 38.171,96.696Z" style="fill:rgb(255,0,0);"/>
        <path d="M45.461,98.531C50.57,95.922 54.768,92.95 58.471,88.695C56.611,92.933 53.905,96.339 50.464,99.587C49.212,100.769 47.647,101.329 46,101.206C45.357,101.158 44.843,100.705 44.716,100.073C44.588,99.441 44.887,98.824 45.461,98.531Z" style="fill:rgb(255,0,0);"/>
        <path d="M64.986,91.268C62.593,95.234 59.481,98.532 55.624,101.822C55.442,101.978 55.378,102.216 55.457,102.442C55.537,102.668 55.737,102.814 55.976,102.82C58.116,102.88 59.881,102.377 61.319,100.234C62.975,97.767 64.009,95.383 64.986,91.268Z" style="fill:rgb(255,0,0);"/>
        <path d="M44.238,46.562C24.645,35.241 15.989,17.277 14.45,1.283C14.391,0.667 13.963,0.178 13.359,0.038C12.756,-0.101 12.157,0.149 11.833,0.677C10.337,3.11 8.983,5.598 7.771,8.127C6.899,9.946 6.97,11.904 7.972,13.655C17.262,29.898 29.391,43.787 44.238,46.562Z" style="fill:rgb(255,0,0);"/>
        <path d="M92.507,49.87L96.478,49.87C98.14,49.87 99.345,49.996 100.081,50.263C100.83,50.517 101.198,51.101 101.198,51.989C101.198,52.636 100.843,53.372 100.12,54.222C99.409,55.034 98.94,55.63 98.724,55.985C98.521,56.341 98.28,57.039 98.001,58.079L91.682,77.631C89.918,81.768 88.345,84.547 86.962,85.955C85.845,87.071 84.183,87.629 81.976,87.629C80.593,87.629 79.476,87.465 78.651,87.122C77.814,86.792 76.977,86.094 76.139,85.028C75.289,83.912 74.54,82.706 73.868,81.412C73.195,80.105 72.51,78.545 71.787,76.705C71.064,74.878 70.531,73.495 70.188,72.543C68.234,77.796 66.217,81.856 64.161,84.736C63.375,85.84 62.562,86.601 61.725,87.02C60.901,87.426 59.809,87.629 58.477,87.629C56.866,87.629 55.597,87.401 54.683,86.957C53.77,86.513 53.034,85.878 52.475,85.066C51.917,84.241 51.207,82.947 50.331,81.158C47.464,75.334 45.193,68.787 43.531,61.505L42.706,57.711C42.363,56.226 42.033,55.338 41.703,55.033C41.095,54.513 40.612,54.069 40.295,53.676C39.978,53.295 39.813,52.8 39.813,52.204C39.813,51.29 40.13,50.669 40.777,50.351C41.425,50.034 42.287,49.869 43.378,49.869L54.341,49.869C55.572,49.869 56.536,50.009 57.221,50.301C57.894,50.58 58.236,51.239 58.236,52.28C58.236,52.876 58.135,53.308 57.944,53.574C57.741,53.828 57.411,54.107 56.942,54.386C56.46,54.665 56.117,54.944 55.902,55.198C55.673,55.465 55.559,55.845 55.559,56.341C55.559,57.482 55.762,58.954 56.155,60.781C56.549,62.609 57.132,64.994 57.906,67.976C58.528,70.183 59.162,72.099 59.822,73.736C60.482,75.373 61.269,76.959 62.182,78.494C65.24,72.543 66.763,66.377 66.763,59.982C66.763,58.523 66.661,57.381 66.471,56.581C66.268,55.769 65.76,55.033 64.936,54.374C64.022,53.549 63.565,52.762 63.565,51.988C63.565,50.58 64.732,49.869 67.055,49.869L77.116,49.869C78.423,49.869 79.438,49.996 80.161,50.263C80.885,50.517 81.24,51.176 81.24,52.217C81.24,52.877 81.024,53.384 80.593,53.739C80.161,54.082 79.717,54.424 79.286,54.78C78.854,55.122 78.639,55.617 78.639,56.264C78.639,58.218 79.387,61.669 80.872,66.592L85.439,78.494C86.848,75.842 88.256,72.366 89.665,68.051C91.061,63.738 91.758,60.337 91.758,57.863C91.758,56.898 91.606,56.175 91.289,55.693C90.984,55.198 90.502,54.742 89.868,54.31C89.221,53.879 88.802,53.536 88.599,53.27C88.396,53.016 88.307,52.559 88.307,51.912C88.307,51.075 88.649,50.517 89.347,50.263C90.032,49.996 91.086,49.869 92.507,49.869L92.507,49.87Z" style="fill:rgb(255,0,0);fill-rule:nonzero;"/>
        <path id="_1" serif:id="1" d="M117.121,73.393C117.438,74.929 118.073,76.337 119.012,77.593C119.951,78.862 121.105,79.839 122.476,80.512C123.833,81.197 125.318,81.539 126.929,81.539C128.883,81.539 130.659,81.158 132.258,80.41C133.857,79.649 135.506,78.507 137.194,76.971C137.435,76.768 137.739,76.515 138.082,76.21C138.424,75.893 138.767,75.665 139.084,75.512C139.401,75.373 139.82,75.297 140.315,75.297C140.886,75.297 141.393,75.5 141.85,75.906C142.307,76.312 142.548,76.794 142.548,77.339C142.548,78.177 142.193,79.065 141.495,79.991C140.81,80.917 139.972,81.78 139.008,82.58C138.043,83.366 137.155,83.988 136.369,84.432C134.427,85.574 132.435,86.386 130.392,86.881C128.35,87.376 126.129,87.629 123.718,87.629C120.204,87.629 116.867,86.893 113.72,85.422C110.574,83.937 108.036,81.831 106.12,79.103C104.204,76.363 103.24,73.203 103.24,69.638C103.24,65.565 104.306,61.987 106.425,58.865C108.544,55.757 111.348,53.384 114.862,51.735C118.364,50.085 122.133,49.261 126.142,49.261C128.604,49.261 131.04,49.654 133.45,50.428C135.861,51.214 137.853,52.432 139.414,54.095C140.974,55.757 141.761,57.85 141.761,60.375C141.761,62.913 140.759,65.019 138.754,66.719C136.749,68.419 134.275,69.752 131.357,70.716C129.936,71.173 128.502,71.528 127.018,71.82C125.546,72.099 123.795,72.391 121.739,72.695C119.697,72.987 118.162,73.228 117.121,73.393ZM116.411,68.305C119.824,68.013 122.92,67.176 125.711,65.793C128.49,64.423 129.885,62.329 129.885,59.538C129.885,58.015 129.492,56.823 128.718,55.922C127.931,55.034 126.802,54.59 125.318,54.59C123.44,54.59 121.828,55.275 120.471,56.632C119.126,58.003 118.111,59.754 117.426,61.898C116.753,64.042 116.411,66.174 116.411,68.305Z" style="fill:rgb(255,0,0);fill-rule:nonzero;"/>
        <path id="_2" serif:id="2" d="M155.933,44.921C154.081,44.921 152.406,44.414 150.922,43.386C149.437,42.358 148.689,40.963 148.689,39.199C148.689,37.892 149.057,36.75 149.767,35.786C150.491,34.822 151.416,34.086 152.559,33.578C153.7,33.071 154.868,32.817 156.086,32.817C158.116,32.817 159.867,33.337 161.339,34.39C162.823,35.444 163.559,36.953 163.559,38.907C163.559,40.709 162.76,42.168 161.161,43.272C159.562,44.376 157.824,44.921 155.933,44.921ZM150.998,76.819L150.998,64.917C150.998,62.24 150.922,60.337 150.769,59.233C150.655,58.51 150.427,57.964 150.084,57.596C149.754,57.215 149.234,56.848 148.549,56.48C147.75,55.997 147.242,55.655 147.001,55.439C146.773,55.211 146.646,54.856 146.646,54.361C146.646,53.739 146.899,53.232 147.407,52.851C147.915,52.47 148.473,52.191 149.069,52.014C149.665,51.836 150.401,51.658 151.29,51.455C155.527,49.996 158.521,49.26 160.285,49.26C162.366,49.26 163.406,51.176 163.406,55.021L163.406,76.819C163.406,78.849 163.508,80.194 163.698,80.829C163.876,81.184 164.358,81.615 165.157,82.135C166.071,82.732 166.528,83.404 166.528,84.14C166.528,85.701 165.564,86.488 163.635,86.488L150.769,86.488C148.841,86.488 147.876,85.701 147.876,84.14C147.876,83.379 148.333,82.706 149.247,82.135C150.046,81.564 150.528,81.133 150.706,80.829C150.896,80.194 150.998,78.849 150.998,76.819Z" style="fill:rgb(255,0,0);fill-rule:nonzero;"/>
        <path id="_3" serif:id="3" d="M189.607,62.786L193.185,63.712C196.7,64.6 199.44,65.806 201.382,67.328C203.323,68.851 204.3,71.211 204.3,74.409C204.3,76.489 203.767,78.405 202.689,80.169C201.61,81.933 200.126,83.417 198.235,84.622C196.624,85.574 194.784,86.31 192.716,86.843C190.648,87.363 188.542,87.629 186.41,87.629C182.667,87.629 179.317,86.957 176.361,85.612C174.8,84.94 173.405,84.026 172.174,82.872C170.956,81.717 170.334,80.435 170.334,79.04C170.334,78.101 170.639,77.276 171.248,76.578C171.857,75.88 172.618,75.525 173.532,75.525C174.306,75.525 174.914,75.703 175.359,76.033C175.803,76.375 176.361,76.946 177.033,77.771C178.594,79.433 179.863,80.575 180.865,81.197C181.855,81.831 183.2,82.148 184.888,82.148C186.499,82.148 187.983,81.78 189.328,81.032C190.686,80.296 191.359,79.167 191.359,77.656C191.359,75.969 190.724,74.878 189.443,74.37C188.161,73.863 185.738,73.178 182.147,72.289C178.569,71.414 175.904,70.285 174.166,68.902C172.428,67.506 171.565,65.273 171.565,62.177C171.565,59.233 172.428,56.785 174.154,54.843C175.879,52.902 178.061,51.494 180.7,50.593C183.34,49.705 186.106,49.26 189.011,49.26C191.016,49.26 193.186,49.514 195.52,50.009C197.855,50.504 199.695,51.214 201.027,52.128C201.7,52.521 202.131,53.169 202.334,54.057C202.524,54.958 202.626,56.023 202.626,57.267C202.626,58.421 202.486,59.335 202.22,59.995C201.941,60.655 201.319,60.984 200.355,60.984C199.492,60.984 198.49,60.248 197.361,58.789C196.231,57.317 195.229,56.239 194.341,55.515C193.465,54.792 191.955,54.437 189.824,54.437C188.327,54.437 186.995,54.792 185.814,55.515C184.634,56.226 184.051,57.279 184.051,58.662C184.051,59.855 184.558,60.73 185.561,61.301C186.563,61.872 187.92,62.367 189.608,62.786L189.607,62.786Z" style="fill:rgb(255,0,0);fill-rule:nonzero;"/>
        <path id="_4" serif:id="4" d="M250.231,64.69L250.231,76.819C250.231,78.849 250.332,80.194 250.522,80.829C250.675,81.133 251.157,81.565 251.982,82.136C252.895,82.707 253.352,83.379 253.352,84.14C253.352,85.701 252.388,86.488 250.459,86.488L237.593,86.488C235.665,86.488 234.7,85.701 234.7,84.14C234.7,83.405 235.157,82.732 236.071,82.136C236.896,81.565 237.378,81.133 237.53,80.841C237.72,80.194 237.822,78.862 237.822,76.832L237.822,64.194C237.822,62.482 237.682,60.997 237.39,59.741C237.111,58.472 236.502,57.445 235.589,56.632C234.675,55.833 233.356,55.427 231.643,55.427C229.587,55.427 227.887,56.176 226.555,57.66C225.857,58.421 225.4,59.221 225.197,60.033C224.982,60.857 224.88,61.834 224.88,62.964L224.88,76.832C224.88,78.862 224.982,80.194 225.172,80.841C225.324,81.133 225.807,81.564 226.631,82.135C227.545,82.706 228.002,83.379 228.002,84.14C228.002,85.701 227.037,86.488 225.109,86.488L212.243,86.488C210.314,86.488 209.35,85.701 209.35,84.14C209.35,83.404 209.807,82.732 210.721,82.135C211.545,81.564 212.027,81.133 212.18,80.841C212.37,80.194 212.472,78.849 212.472,76.819L212.472,44.553C212.472,41.851 212.395,39.935 212.243,38.818C212.103,38.057 211.875,37.511 211.583,37.181C211.279,36.864 210.771,36.496 210.061,36.065C209.261,35.596 208.741,35.266 208.5,35.05C208.246,34.834 208.119,34.466 208.119,33.946C208.119,33.312 208.398,32.791 208.944,32.411C209.49,32.03 210.035,31.751 210.593,31.586C211.152,31.434 211.875,31.244 212.763,31.053C217.305,29.594 220.3,28.858 221.759,28.858C223.84,28.858 224.88,30.774 224.88,34.618L224.88,52.927C225.895,52.179 227.012,51.519 228.242,50.961C229.473,50.402 230.729,49.971 232.036,49.692C233.33,49.4 234.662,49.26 235.995,49.26C237.238,49.26 238.532,49.4 239.902,49.692C241.26,49.971 242.516,50.415 243.671,51.011C244.825,51.608 245.866,52.381 246.817,53.346C247.756,54.323 248.48,55.414 248.987,56.645C249.495,57.875 249.824,59.106 249.989,60.337C250.154,61.58 250.231,63.027 250.231,64.689L250.231,64.69Z" style="fill:rgb(255,0,0);fill-rule:nonzero;"/>
        <path id="_5" serif:id="5" d="M279.083,87.629C273.081,87.629 268.158,86.056 264.314,82.909C262.893,81.742 261.674,80.398 260.622,78.862C259.581,77.327 258.807,75.69 258.287,73.977C257.767,72.251 257.5,70.463 257.5,68.597C257.5,66.022 258.084,63.522 259.264,61.073C260.444,58.637 262.017,56.531 263.971,54.742C266.154,52.851 268.59,51.469 271.254,50.58C273.918,49.705 276.748,49.261 279.755,49.261C283.371,49.261 286.822,50.06 290.083,51.659C293.344,53.258 295.958,55.503 297.937,58.409C299.904,61.302 300.893,64.563 300.893,68.179C300.893,71.972 299.866,75.36 297.823,78.329C295.78,81.311 293.078,83.607 289.715,85.219C286.353,86.83 282.813,87.629 279.083,87.629ZM279.159,82.301C284.868,82.301 287.723,77.441 287.723,67.722C287.723,64.283 287.076,61.264 285.795,58.65C284.513,56.049 282.344,54.742 279.311,54.742C276.215,54.742 274.008,56.087 272.675,58.789C271.343,61.479 270.671,64.588 270.671,68.09C270.671,71.922 271.267,75.259 272.472,78.075C273.665,80.892 275.898,82.301 279.159,82.301Z" style="fill:rgb(255,0,0);fill-rule:nonzero;"/>
        <path id="_6" serif:id="6" d="M308.164,73.609L308.164,60.972L308.164,59.373C308.164,58.485 308.062,57.774 307.872,57.267C307.668,56.759 307.212,56.277 306.489,55.807C306.197,55.554 305.956,55.351 305.791,55.186C305.613,55.033 305.474,54.83 305.359,54.577C305.245,54.323 305.194,54.069 305.194,53.79C305.194,53.105 305.575,52.496 306.337,51.976C307.428,51.328 309.953,50.618 313.886,49.857C313.937,49.73 314.229,49.603 314.762,49.463C315.295,49.324 315.853,49.26 316.449,49.26C318.251,49.26 319.393,49.768 319.862,50.77C320.331,51.773 320.573,53.333 320.573,55.465L320.573,72.911C320.573,74.662 320.661,76.108 320.852,77.225C321.042,78.341 321.524,79.293 322.311,80.105C323.085,80.905 324.239,81.311 325.749,81.311C326.739,81.311 327.78,81.044 328.845,80.524C329.911,80.004 330.736,79.382 331.332,78.634C331.929,77.885 332.309,77.06 332.449,76.147C332.601,75.22 332.678,74.078 332.678,72.683L332.678,60.972L332.678,59.373C332.678,58.485 332.576,57.787 332.385,57.279C332.182,56.772 331.726,56.277 331.003,55.807C330.711,55.554 330.482,55.351 330.318,55.198C330.153,55.033 330.013,54.83 329.912,54.577C329.797,54.336 329.747,54.069 329.747,53.803C329.747,53.13 330.115,52.521 330.851,51.976C331.891,51.354 334.403,50.656 338.4,49.857C339.935,49.565 341.077,49.413 341.813,49.413C343.526,49.413 344.617,49.996 345.087,51.163L345.087,76.032C345.087,78.164 345.214,79.56 345.455,80.232C345.784,80.854 346.355,81.336 347.167,81.679C348.436,82.3 349.07,83.087 349.07,84.026C349.07,85.092 348.703,85.777 347.967,86.056C347.243,86.348 346.229,86.488 344.934,86.488L338.4,86.488C336.611,86.488 335.443,86.195 334.872,85.612C334.301,85.028 333.883,83.798 333.603,81.907C331.751,83.861 329.759,85.307 327.64,86.234C325.521,87.16 323.187,87.629 320.661,87.629C318.162,87.629 316.018,87.16 314.229,86.234C312.44,85.307 310.904,83.861 309.61,81.907C309.242,81.285 308.912,80.181 308.608,78.608C308.316,77.035 308.164,75.373 308.164,73.609Z" style="fill:rgb(255,0,0);fill-rule:nonzero;"/>
        <path id="_7" serif:id="7" d="M370.779,70.209L370.779,76.236C370.779,78.367 370.906,79.75 371.147,80.398C371.375,80.867 371.933,81.324 372.822,81.768C374.065,82.415 374.687,83.164 374.687,84.039C374.687,85.105 374.319,85.777 373.583,86.056C372.859,86.348 371.844,86.488 370.551,86.488L358.586,86.488C357.304,86.488 356.302,86.348 355.578,86.056C354.868,85.777 354.5,85.105 354.5,84.039C354.5,83.138 355.109,82.39 356.327,81.768C357.241,81.298 357.799,80.842 358.002,80.398C358.243,79.75 358.37,78.367 358.37,76.236L358.37,62.291C358.37,61.923 358.218,61.226 357.926,60.211C357.723,59.475 357.443,58.929 357.088,58.574C356.733,58.231 356.086,57.85 355.172,57.419C354.424,57.026 353.903,56.67 353.599,56.341C353.282,56.024 353.13,55.541 353.13,54.894C353.13,53.625 354.373,52.484 356.847,51.456C360.781,49.996 363.445,49.261 364.828,49.261C366.3,49.261 367.302,49.984 367.848,51.443C368.393,52.89 368.838,54.818 369.18,57.204C370.246,55.034 371.654,53.181 373.418,51.608C375.182,50.047 377.085,49.261 379.14,49.261C380.802,49.261 382.173,49.781 383.251,50.821C384.33,51.874 384.863,53.219 384.863,54.894C384.863,56.226 384.495,57.445 383.771,58.523C383.035,59.601 382.059,60.147 380.815,60.147C380.219,60.147 379.368,59.982 378.265,59.665C377.161,59.335 376.323,59.182 375.727,59.182C374.306,59.182 373.152,60.122 372.225,61.999C371.654,63.014 371.274,64.22 371.071,65.602C370.88,66.998 370.779,68.533 370.779,70.208L370.779,70.209Z" style="fill:rgb(255,0,0);fill-rule:nonzero;"/>
    </g>
</svg>
