<?xml version="1.0" encoding="UTF-8" standalone="no"?>
<!DOCTYPE svg PUBLIC "-//W3C//DTD SVG 1.1//EN" "http://www.w3.org/Graphics/SVG/1.1/DTD/svg11.dtd">
<svg width="100%" height="100%" viewBox="0 0 107 107" version="1.1" xmlns="http://www.w3.org/2000/svg" xmlns:xlink="http://www.w3.org/1999/xlink" xml:space="preserve" xmlns:serif="http://www.serif.com/" style="fill-rule:evenodd;clip-rule:evenodd;stroke-linejoin:round;stroke-miterlimit:1.41421;">
    <g id="画板1" transform="matrix(0.946251,0,0,0.952523,4.51223,4.60833)">
        <rect x="0.293" y="0.024" width="102.472" height="101.994" style="fill:none;"/>
        <g id="图层_x0020_1" transform="matrix(0.964827,0,0,0.958478,2.47026,1.44844)">
            <path d="M40.41,67.959C21.291,67.963 9.79,60.288 3.997,55.967C3.511,55.605 2.882,55.586 2.374,55.918C1.867,56.25 1.632,56.835 1.769,57.425C2.098,58.836 2.472,60.232 2.891,61.609C3.472,63.517 4.821,64.899 6.714,65.526C18.081,69.291 29.371,71.013 40.41,67.959Z" style="fill:rgb(255,0,0);"/>
            <path d="M39.413,51.648C19.581,44.174 13.533,33.409 6.746,17.342C6.511,16.786 5.982,16.452 5.38,16.477C4.777,16.503 4.279,16.882 4.092,17.455C3.29,19.924 2.502,22.613 1.91,25.048C1.464,26.889 1.851,28.661 3.027,30.146C10.95,40.159 29.35,53.369 39.413,51.648Z" style="fill:rgb(255,0,0);"/>
            <path d="M36.757,58.374C22.29,58.046 14.024,48.166 2.67,35.47C2.282,35.037 1.707,34.886 1.157,35.073C0.606,35.26 0.242,35.731 0.2,36.311C0.055,38.289 -0.011,40.261 0.002,42.222C0.014,44.099 0.806,45.71 2.284,46.868C14.001,56.045 29.544,62.535 36.757,58.374Z" style="fill:rgb(255,0,0);"/>
            <path d="M43.267,73.335C38.229,75.361 28.304,79.006 10.048,72.157C9.477,71.943 8.863,72.102 8.468,72.567C8.074,73.031 8.017,73.663 8.321,74.191C8.892,75.181 9.492,76.154 10.122,77.108C11.179,78.711 12.773,79.64 14.689,79.77C22.543,80.301 38.494,79.515 43.267,73.335Z" style="fill:rgb(255,0,0);"/>
            <path d="M25.437,90.127C34.076,88.496 40.993,86.181 46.893,80.023C46.776,79.91 39.266,86.016 19.879,84.907C19.27,84.872 18.73,85.207 18.492,85.769C18.254,86.331 18.389,86.952 18.838,87.365C19.374,87.858 19.922,88.342 20.481,88.816C21.898,90.019 23.611,90.472 25.437,90.127Z" style="fill:rgb(255,0,0);"/>
            <path d="M38.171,96.696C43.923,93.723 48.462,90.238 52.128,84.748C46.319,89.822 40.175,92.162 32.46,93.758C31.856,93.883 31.419,94.356 31.341,94.968C31.264,95.579 31.569,96.147 32.123,96.418C32.378,96.543 32.634,96.667 32.892,96.789C34.626,97.609 36.467,97.577 38.171,96.696Z" style="fill:rgb(255,0,0);"/>
            <path d="M45.461,98.531C50.57,95.922 54.768,92.95 58.471,88.695C56.611,92.933 53.905,96.339 50.464,99.587C49.212,100.769 47.647,101.329 46,101.206C45.357,101.158 44.843,100.705 44.716,100.073C44.588,99.441 44.887,98.824 45.461,98.531Z" style="fill:rgb(255,0,0);"/>
            <path d="M64.986,91.268C62.593,95.234 59.481,98.532 55.624,101.822C55.442,101.978 55.378,102.216 55.457,102.442C55.537,102.668 55.737,102.814 55.976,102.82C58.116,102.88 59.881,102.377 61.319,100.234C62.975,97.767 64.009,95.383 64.986,91.268Z" style="fill:rgb(255,0,0);"/>
            <path d="M44.238,46.562C24.645,35.241 15.989,17.277 14.45,1.283C14.391,0.667 13.963,0.178 13.359,0.038C12.756,-0.101 12.157,0.149 11.833,0.677C10.337,3.11 8.983,5.598 7.771,8.127C6.899,9.946 6.97,11.904 7.972,13.655C17.262,29.898 29.391,43.787 44.238,46.562Z" style="fill:rgb(255,0,0);"/>
            <path d="M92.507,49.87L96.478,49.87C98.14,49.87 99.345,49.996 100.081,50.263C100.83,50.517 101.198,51.101 101.198,51.989C101.198,52.636 100.843,53.372 100.12,54.222C99.409,55.034 98.94,55.63 98.724,55.985C98.521,56.341 98.28,57.039 98.001,58.079L91.682,77.631C89.918,81.768 88.345,84.547 86.962,85.955C85.845,87.071 84.183,87.629 81.976,87.629C80.593,87.629 79.476,87.465 78.651,87.122C77.814,86.792 76.977,86.094 76.139,85.028C75.289,83.912 74.54,82.706 73.868,81.412C73.195,80.105 72.51,78.545 71.787,76.705C71.064,74.878 70.531,73.495 70.188,72.543C68.234,77.796 66.217,81.856 64.161,84.736C63.375,85.84 62.562,86.601 61.725,87.02C60.901,87.426 59.809,87.629 58.477,87.629C56.866,87.629 55.597,87.401 54.683,86.957C53.77,86.513 53.034,85.878 52.475,85.066C51.917,84.241 51.207,82.947 50.331,81.158C47.464,75.334 45.193,68.787 43.531,61.505L42.706,57.711C42.363,56.226 42.033,55.338 41.703,55.033C41.095,54.513 40.612,54.069 40.295,53.676C39.978,53.295 39.813,52.8 39.813,52.204C39.813,51.29 40.13,50.669 40.777,50.351C41.425,50.034 42.287,49.869 43.378,49.869L54.341,49.869C55.572,49.869 56.536,50.009 57.221,50.301C57.894,50.58 58.236,51.239 58.236,52.28C58.236,52.876 58.135,53.308 57.944,53.574C57.741,53.828 57.411,54.107 56.942,54.386C56.46,54.665 56.117,54.944 55.902,55.198C55.673,55.465 55.559,55.845 55.559,56.341C55.559,57.482 55.762,58.954 56.155,60.781C56.549,62.609 57.132,64.994 57.906,67.976C58.528,70.183 59.162,72.099 59.822,73.736C60.482,75.373 61.269,76.959 62.182,78.494C65.24,72.543 66.763,66.377 66.763,59.982C66.763,58.523 66.661,57.381 66.471,56.581C66.268,55.769 65.76,55.033 64.936,54.374C64.022,53.549 63.565,52.762 63.565,51.988C63.565,50.58 64.732,49.869 67.055,49.869L77.116,49.869C78.423,49.869 79.438,49.996 80.161,50.263C80.885,50.517 81.24,51.176 81.24,52.217C81.24,52.877 81.024,53.384 80.593,53.739C80.161,54.082 79.717,54.424 79.286,54.78C78.854,55.122 78.639,55.617 78.639,56.264C78.639,58.218 79.387,61.669 80.872,66.592L85.439,78.494C86.848,75.842 88.256,72.366 89.665,68.051C91.061,63.738 91.758,60.337 91.758,57.863C91.758,56.898 91.606,56.175 91.289,55.693C90.984,55.198 90.502,54.742 89.868,54.31C89.221,53.879 88.802,53.536 88.599,53.27C88.396,53.016 88.307,52.559 88.307,51.912C88.307,51.075 88.649,50.517 89.347,50.263C90.032,49.996 91.086,49.869 92.507,49.869L92.507,49.87Z" style="fill:rgb(255,0,0);fill-rule:nonzero;"/>
        </g>
    </g>
</svg>
